<svg xmlns="http://www.w3.org/2000/svg" viewBox="0 0 900 500"><style>text{font-family:Arial,sans-serif;fill:#20242b}.axis{stroke:#67717e}.bar{fill:#1f7a6d}</style><text x="450.0" y="32" text-anchor="middle" font-size="20">Class transition rates</text><line class="axis" x1="70" y1="430.0" x2="830" y2="430.0"/><rect class="bar" x="74.9" y="406.7" width="18.3" height="23.3"/><text x="84.1" y="448" text-anchor="middle" font-size="10">benign_image:mild_to_little_or_no</text><text x="84.1" y="400.7" text-anchor="middle" font-size="11">0.052</text><rect class="bar" x="103.1" y="363.2" width="18.3" height="66.8"/><text x="112.2" y="448" text-anchor="middle" font-size="10">benign_image:severe_to_mild</text><text x="112.2" y="357.2" text-anchor="middle" font-size="11">0.150</text><rect class="bar" x="131.2" y="430.0" width="18.3" height="1.0"/><text x="140.4" y="448" text-anchor="middle" font-size="10">benign_image:severe_to_little_or_no</text><text x="140.4" y="424.0" text-anchor="middle" font-size="11">0.000</text><rect class="bar" x="159.4" y="419.6" width="18.3" height="10.4"/><text x="168.5" y="448" text-anchor="middle" font-size="10">benign_text:mild_to_little_or_no</text><text x="168.5" y="413.6" text-anchor="middle" font-size="11">0.023</text><rect class="bar" x="187.5" y="430.0" width="18.3" height="1.0"/><text x="196.7" y="448" text-anchor="middle" font-size="10">benign_text:severe_to_mild</text><text x="196.7" y="424.0" text-anchor="middle" font-size="11">0.000</text><rect class="bar" x="215.7" y="430.0" width="18.3" height="1.0"/><text x="224.8" y="448" text-anchor="middle" font-size="10">benign_text:severe_to_little_or_no</text><text x="224.8" y="424.0" text-anchor="middle" font-size="11">0.000</text><rect class="bar" x="243.8" y="396.3" width="18.3" height="33.7"/><text x="253.0" y="448" text-anchor="middle" font-size="10">benign_joint:mild_to_little_or_no</text><text x="253.0" y="390.3" text-anchor="middle" font-size="11">0.076</text><rect class="bar" x="272.0" y="370.6" width="18.3" height="59.4"/><text x="281.1" y="448" text-anchor="middle" font-size="10">benign_joint:severe_to_mild</text><text x="281.1" y="364.6" text-anchor="middle" font-size="11">0.133</text><rect class="bar" x="300.1" y="430.0" width="18.3" height="1.0"/><text x="309.3" y="448" text-anchor="middle" font-size="10">benign_joint:severe_to_little_or_no</text><text x="309.3" y="424.0" text-anchor="middle" font-size="11">0.000</text><rect class="bar" x="328.3" y="70.0" width="18.3" height="360.0"/><text x="337.4" y="448" text-anchor="middle" font-size="10">direct_image:mild_to_little_or_no</text><text x="337.4" y="64.0" text-anchor="middle" font-size="11">0.808</text><rect class="bar" x="356.4" y="400.3" width="18.3" height="29.7"/><text x="365.6" y="448" text-anchor="middle" font-size="10">direct_image:severe_to_mild</text><text x="365.6" y="394.3" text-anchor="middle" font-size="11">0.067</text><rect class="bar" x="384.6" y="88.5" width="18.3" height="341.5"/><text x="393.7" y="448" text-anchor="middle" font-size="10">direct_image:severe_to_little_or_no</text><text x="393.7" y="82.5" text-anchor="middle" font-size="11">0.767</text><rect class="bar" x="412.7" y="274.6" width="18.3" height="155.4"/><text x="421.9" y="448" text-anchor="middle" font-size="10">direct_text:mild_to_little_or_no</text><text x="421.9" y="268.6" text-anchor="middle" font-size="11">0.349</text><rect class="bar" x="440.9" y="422.6" width="18.3" height="7.4"/><text x="450.0" y="448" text-anchor="middle" font-size="10">direct_text:severe_to_mild</text><text x="450.0" y="416.6" text-anchor="middle" font-size="11">0.017</text><rect class="bar" x="469.0" y="422.6" width="18.3" height="7.4"/><text x="478.1" y="448" text-anchor="middle" font-size="10">direct_text:severe_to_little_or_no</text><text x="478.1" y="416.6" text-anchor="middle" font-size="11">0.017</text><rect class="bar" x="497.1" y="85.5" width="18.3" height="344.5"/><text x="506.3" y="448" text-anchor="middle" font-size="10">direct_joint:mild_to_little_or_no</text><text x="506.3" y="79.5" text-anchor="middle" font-size="11">0.773</text><rect class="bar" x="525.3" y="392.9" width="18.3" height="37.1"/><text x="534.4" y="448" text-anchor="middle" font-size="10">direct_joint:severe_to_mild</text><text x="534.4" y="386.9" text-anchor="middle" font-size="11">0.083</text><rect class="bar" x="553.4" y="140.4" width="18.3" height="289.6"/><text x="562.6" y="448" text-anchor="middle" font-size="10">direct_joint:severe_to_little_or_no</text><text x="562.6" y="134.4" text-anchor="middle" font-size="11">0.650</text><rect class="bar" x="581.6" y="272.0" width="18.3" height="158.0"/><text x="590.7" y="448" text-anchor="middle" font-size="10">misleading_image:mild_to_little_or_no</text><text x="590.7" y="266.0" text-anchor="middle" font-size="11">0.355</text><rect class="bar" x="609.7" y="355.8" width="18.3" height="74.2"/><text x="618.9" y="448" text-anchor="middle" font-size="10">misleading_image:severe_to_mild</text><text x="618.9" y="349.8" text-anchor="middle" font-size="11">0.167</text><rect class="bar" x="637.9" y="415.2" width="18.3" height="14.8"/><text x="647.0" y="448" text-anchor="middle" font-size="10">misleading_image:severe_to_little_or_no</text><text x="647.0" y="409.2" text-anchor="middle" font-size="11">0.033</text><rect class="bar" x="666.0" y="391.2" width="18.3" height="38.8"/><text x="675.2" y="448" text-anchor="middle" font-size="10">misleading_text:mild_to_little_or_no</text><text x="675.2" y="385.2" text-anchor="middle" font-size="11">0.087</text><rect class="bar" x="694.2" y="392.9" width="18.3" height="37.1"/><text x="703.3" y="448" text-anchor="middle" font-size="10">misleading_text:severe_to_mild</text><text x="703.3" y="386.9" text-anchor="middle" font-size="11">0.083</text><rect class="bar" x="722.3" y="430.0" width="18.3" height="1.0"/><text x="731.5" y="448" text-anchor="middle" font-size="10">misleading_text:severe_to_little_or_no</text><text x="731.5" y="424.0" text-anchor="middle" font-size="11">0.000</text><rect class="bar" x="750.5" y="253.9" width="18.3" height="176.1"/><text x="759.6" y="448" text-anchor="middle" font-size="10">misleading_joint:mild_to_little_or_no</text><text x="759.6" y="247.9" text-anchor="middle" font-size="11">0.395</text><rect class="bar" x="778.6" y="340.9" width="18.3" height="89.1"/><text x="787.8" y="448" text-anchor="middle" font-size="10">misleading_joint:severe_to_mild</text><text x="787.8" y="334.9" text-anchor="middle" font-size="11">0.200</text><rect class="bar" x="806.8" y="407.7" width="18.3" height="22.3"/><text x="815.9" y="448" text-anchor="middle" font-size="10">misleading_joint:severe_to_little_or_no</text><text x="815.9" y="401.7" text-anchor="middle" font-size="11">0.050</text><text x="18" y="250.0" font-size="12" transform="rotate(-90 18 250.0)">transition rate</text></svg>