<svg xmlns="http://www.w3.org/2000/svg" viewBox="0 0 900 500"><style>text{font-family:Arial,sans-serif;fill:#20242b}.axis{stroke:#67717e}.bar{fill:#1f7a6d}</style><text x="450.0" y="32" text-anchor="middle" font-size="20">Downward ASR by condition</text><line class="axis" x1="70" y1="430.0" x2="830" y2="430.0"/><rect class="bar" x="84.8" y="395.7" width="54.9" height="34.3"/><text x="112.2" y="448" text-anchor="middle" font-size="10">benign_image</text><text x="112.2" y="389.7" text-anchor="middle" font-size="11">0.078</text><rect class="bar" x="169.2" y="422.4" width="54.9" height="7.6"/><text x="196.7" y="448" text-anchor="middle" font-size="10">benign_text</text><text x="196.7" y="416.4" text-anchor="middle" font-size="11">0.017</text><rect class="bar" x="253.7" y="390.0" width="54.9" height="40.0"/><text x="281.1" y="448" text-anchor="middle" font-size="10">benign_joint</text><text x="281.1" y="384.0" text-anchor="middle" font-size="11">0.091</text><rect class="bar" x="338.1" y="70.0" width="54.9" height="360.0"/><text x="365.6" y="448" text-anchor="middle" font-size="10">direct_image</text><text x="365.6" y="64.0" text-anchor="middle" font-size="11">0.815</text><rect class="bar" x="422.6" y="311.9" width="54.9" height="118.1"/><text x="450.0" y="448" text-anchor="middle" font-size="10">direct_text</text><text x="450.0" y="305.9" text-anchor="middle" font-size="11">0.267</text><rect class="bar" x="507.0" y="92.9" width="54.9" height="337.1"/><text x="534.4" y="448" text-anchor="middle" font-size="10">direct_joint</text><text x="534.4" y="86.9" text-anchor="middle" font-size="11">0.763</text><rect class="bar" x="591.4" y="291.0" width="54.9" height="139.0"/><text x="618.9" y="448" text-anchor="middle" font-size="10">misleading_image</text><text x="618.9" y="285.0" text-anchor="middle" font-size="11">0.315</text><rect class="bar" x="675.9" y="391.9" width="54.9" height="38.1"/><text x="703.3" y="448" text-anchor="middle" font-size="10">misleading_text</text><text x="703.3" y="385.9" text-anchor="middle" font-size="11">0.086</text><rect class="bar" x="760.3" y="271.9" width="54.9" height="158.1"/><text x="787.8" y="448" text-anchor="middle" font-size="10">misleading_joint</text><text x="787.8" y="265.9" text-anchor="middle" font-size="11">0.358</text><text x="18" y="250.0" font-size="12" transform="rotate(-90 18 250.0)">downward_asr</text></svg>