<svg xmlns="http://www.w3.org/2000/svg" viewBox="0 0 900 500"><style>text{font-family:Arial,sans-serif;fill:#20242b}.axis{stroke:#67717e}.bar{fill:#1f7a6d}</style><text x="450.0" y="32" text-anchor="middle" font-size="20">Downward ASR by condition</text><line class="axis" x1="70" y1="430.0" x2="830" y2="430.0"/><rect class="bar" x="84.8" y="399.6" width="54.9" height="30.4"/><text x="112.2" y="448" text-anchor="middle" font-size="10">benign_image</text><text x="112.2" y="393.6" text-anchor="middle" font-size="11">0.057</text><rect class="bar" x="169.2" y="427.8" width="54.9" height="2.2"/><text x="196.7" y="448" text-anchor="middle" font-size="10">benign_text</text><text x="196.7" y="421.8" text-anchor="middle" font-size="11">0.004</text><rect class="bar" x="253.7" y="401.8" width="54.9" height="28.2"/><text x="281.1" y="448" text-anchor="middle" font-size="10">benign_joint</text><text x="281.1" y="395.8" text-anchor="middle" font-size="11">0.053</text><rect class="bar" x="338.1" y="70.0" width="54.9" height="360.0"/><text x="365.6" y="448" text-anchor="middle" font-size="10">direct_image</text><text x="365.6" y="64.0" text-anchor="middle" font-size="11">0.678</text><rect class="bar" x="422.6" y="386.6" width="54.9" height="43.4"/><text x="450.0" y="448" text-anchor="middle" font-size="10">direct_text</text><text x="450.0" y="380.6" text-anchor="middle" font-size="11">0.082</text><rect class="bar" x="507.0" y="189.3" width="54.9" height="240.7"/><text x="534.4" y="448" text-anchor="middle" font-size="10">direct_joint</text><text x="534.4" y="183.3" text-anchor="middle" font-size="11">0.453</text><rect class="bar" x="591.4" y="334.6" width="54.9" height="95.4"/><text x="618.9" y="448" text-anchor="middle" font-size="10">misleading_image</text><text x="618.9" y="328.6" text-anchor="middle" font-size="11">0.180</text><rect class="bar" x="675.9" y="397.5" width="54.9" height="32.5"/><text x="703.3" y="448" text-anchor="middle" font-size="10">misleading_text</text><text x="703.3" y="391.5" text-anchor="middle" font-size="11">0.061</text><rect class="bar" x="760.3" y="312.9" width="54.9" height="117.1"/><text x="787.8" y="448" text-anchor="middle" font-size="10">misleading_joint</text><text x="787.8" y="306.9" text-anchor="middle" font-size="11">0.220</text><text x="18" y="250.0" font-size="12" transform="rotate(-90 18 250.0)">downward_asr</text></svg>