<svg xmlns="http://www.w3.org/2000/svg" viewBox="0 0 900 500"><style>text{font-family:Arial,sans-serif;fill:#20242b}.axis{stroke:#67717e}.bar{fill:#1f7a6d}</style><text x="450.0" y="32" text-anchor="middle" font-size="20">Downward ASR by condition</text><line class="axis" x1="70" y1="430.0" x2="830" y2="430.0"/><rect class="bar" x="84.8" y="414.8" width="54.9" height="15.2"/><text x="112.2" y="448" text-anchor="middle" font-size="10">benign_image</text><text x="112.2" y="408.8" text-anchor="middle" font-size="11">0.034</text><rect class="bar" x="169.2" y="423.9" width="54.9" height="6.1"/><text x="196.7" y="448" text-anchor="middle" font-size="10">benign_text</text><text x="196.7" y="417.9" text-anchor="middle" font-size="11">0.014</text><rect class="bar" x="253.7" y="413.3" width="54.9" height="16.7"/><text x="281.1" y="448" text-anchor="middle" font-size="10">benign_joint</text><text x="281.1" y="407.3" text-anchor="middle" font-size="11">0.037</text><rect class="bar" x="338.1" y="73.0" width="54.9" height="357.0"/><text x="365.6" y="448" text-anchor="middle" font-size="10">direct_image</text><text x="365.6" y="67.0" text-anchor="middle" font-size="11">0.799</text><rect class="bar" x="422.6" y="378.4" width="54.9" height="51.6"/><text x="450.0" y="448" text-anchor="middle" font-size="10">direct_text</text><text x="450.0" y="372.4" text-anchor="middle" font-size="11">0.116</text><rect class="bar" x="507.0" y="70.0" width="54.9" height="360.0"/><text x="534.4" y="448" text-anchor="middle" font-size="10">direct_joint</text><text x="534.4" y="64.0" text-anchor="middle" font-size="11">0.806</text><rect class="bar" x="591.4" y="322.2" width="54.9" height="107.8"/><text x="618.9" y="448" text-anchor="middle" font-size="10">misleading_image</text><text x="618.9" y="316.2" text-anchor="middle" font-size="11">0.241</text><rect class="bar" x="675.9" y="389.0" width="54.9" height="41.0"/><text x="703.3" y="448" text-anchor="middle" font-size="10">misleading_text</text><text x="703.3" y="383.0" text-anchor="middle" font-size="11">0.092</text><rect class="bar" x="760.3" y="326.7" width="54.9" height="103.3"/><text x="787.8" y="448" text-anchor="middle" font-size="10">misleading_joint</text><text x="787.8" y="320.7" text-anchor="middle" font-size="11">0.231</text><text x="18" y="250.0" font-size="12" transform="rotate(-90 18 250.0)">downward_asr</text></svg>